<svg
  version="1.1"
  id="shopping_x5F_carts_1_"
  xmlns="http://www.w3.org/2000/svg"
  x="0"
  y="0"
  viewBox="0 0 128 128"
  style="enable-background: new 0 0 128 128"
  xml:space="preserve"
>
  <style>
    .st0 {
      display: none;
    }
    .st1 {
      display: inline;
    }
    .st2 {
      fill: #FFF;
    }
  </style>
  <g id="_x38__1_">
    <path
      className="st2"
      d="M27.4 13.7V7.6H0v6.1h21.3V99H97.5v-6H27.4V13.7zm6.1 54.9h82.3v-6.1H33.5v6.1zm0 15.2h73.1v-6.1H33.5v6.1zm3.1 18.3c-5 0-9.1 4.1-9.1 9.1 0 5.1 4.1 9.1 9.1 9.1s9.1-4.1 9.1-9.1-4.1-9.1-9.1-9.1zm45.7 0c-5 0-9.1 4.1-9.1 9.1 0 5.1 4.1 9.1 9.1 9.1s9.1-4.1 9.1-9.1-4.1-9.1-9.1-9.1zM33.5 53.3h88.4v-6.1H33.5v6.1zm0-21.3v6.1H128V32H33.5z"
      id="icon_7_"
    />
  </g>
</svg>
